<svg width="145" height="73" viewBox="0 0 145 73" fill="none" xmlns="http://www.w3.org/2000/svg">
<path d="M63.135 52.45C61.455 52.45 60.06 52.24 58.95 51.82C57.84 51.4 56.97 50.89 56.34 50.29C55.71 49.69 55.275 49.09 55.035 48.49C54.825 47.89 54.735 47.41 54.765 47.05C54.825 46.72 54.975 46.465 55.215 46.285C55.485 46.105 55.74 46.015 55.98 46.015H58.005C58.155 46.015 58.29 46.045 58.41 46.105C58.53 46.135 58.635 46.255 58.725 46.465C59.025 46.885 59.37 47.305 59.76 47.725C60.15 48.145 60.66 48.49 61.29 48.76C61.95 49.03 62.82 49.165 63.9 49.165C65.4 49.165 66.705 48.88 67.815 48.31C68.955 47.71 69.645 46.84 69.885 45.7C70.035 44.95 69.945 44.35 69.615 43.9C69.285 43.45 68.655 43.045 67.725 42.685C66.795 42.325 65.46 41.95 63.72 41.56C62.01 41.14 60.69 40.63 59.76 40.03C58.86 39.4 58.275 38.665 58.005 37.825C57.765 36.955 57.75 35.98 57.96 34.9C58.23 33.79 58.785 32.725 59.625 31.705C60.495 30.655 61.635 29.8 63.045 29.14C64.485 28.48 66.165 28.15 68.085 28.15C69.645 28.15 70.935 28.345 71.955 28.735C73.005 29.125 73.83 29.62 74.43 30.22C75.03 30.79 75.435 31.36 75.645 31.93C75.885 32.5 75.975 32.98 75.915 33.37C75.885 33.67 75.735 33.925 75.465 34.135C75.225 34.315 74.97 34.405 74.7 34.405H72.855C72.645 34.405 72.465 34.36 72.315 34.27C72.195 34.18 72.105 34.075 72.045 33.955C71.805 33.565 71.52 33.175 71.19 32.785C70.89 32.395 70.44 32.08 69.84 31.84C69.27 31.57 68.46 31.435 67.41 31.435C65.91 31.435 64.71 31.75 63.81 32.38C62.94 33.01 62.4 33.805 62.19 34.765C62.07 35.335 62.115 35.845 62.325 36.295C62.565 36.745 63.105 37.15 63.945 37.51C64.815 37.87 66.12 38.26 67.86 38.68C69.75 39.07 71.19 39.595 72.18 40.255C73.2 40.915 73.86 41.68 74.16 42.55C74.46 43.42 74.49 44.425 74.25 45.565C74.01 46.825 73.395 47.98 72.405 49.03C71.445 50.08 70.185 50.92 68.625 51.55C67.065 52.15 65.235 52.45 63.135 52.45ZM86.5694 52.45C84.4394 52.45 82.7594 52.03 81.5294 51.19C80.3294 50.32 79.5494 49.12 79.1894 47.59C78.8594 46.06 78.8894 44.305 79.2794 42.325L81.9794 29.635C82.0394 29.335 82.1894 29.095 82.4294 28.915C82.6694 28.705 82.9394 28.6 83.2394 28.6H85.4894C85.7894 28.6 85.9994 28.705 86.1194 28.915C86.2694 29.095 86.3144 29.335 86.2544 29.635L83.6444 42.1C83.3144 43.57 83.1944 44.815 83.2844 45.835C83.4044 46.825 83.7944 47.575 84.4544 48.085C85.1444 48.565 86.2094 48.805 87.6494 48.805C89.5994 48.805 91.3094 48.22 92.7794 47.05C94.2494 45.85 95.2094 44.2 95.6594 42.1L98.3144 29.635C98.3744 29.335 98.5244 29.095 98.7644 28.915C99.0044 28.705 99.2744 28.6 99.5744 28.6H101.779C102.079 28.6 102.304 28.705 102.454 28.915C102.604 29.095 102.649 29.335 102.589 29.635L98.0444 50.965C97.9844 51.265 97.8344 51.52 97.5944 51.73C97.3844 51.91 97.1294 52 96.8294 52H94.7594C94.4594 52 94.2194 51.91 94.0394 51.73C93.8894 51.52 93.8444 51.265 93.9044 50.965L94.3094 48.985C93.6494 49.675 92.9744 50.29 92.2844 50.83C91.5944 51.34 90.7994 51.73 89.8994 52C89.0294 52.3 87.9194 52.45 86.5694 52.45ZM105.585 52C105.285 52 105.045 51.91 104.865 51.73C104.715 51.52 104.67 51.265 104.73 50.965L109.275 29.68C109.335 29.38 109.485 29.125 109.725 28.915C109.965 28.705 110.235 28.6 110.535 28.6H112.605C112.905 28.6 113.13 28.705 113.28 28.915C113.46 29.125 113.52 29.38 113.46 29.68L113.01 31.66C113.7 30.64 114.615 29.875 115.755 29.365C116.925 28.855 118.275 28.6 119.805 28.6H121.74C122.04 28.6 122.25 28.705 122.37 28.915C122.52 29.095 122.565 29.335 122.505 29.635L122.145 31.48C122.085 31.78 121.935 32.02 121.695 32.2C121.485 32.38 121.215 32.47 120.885 32.47H118.23C116.61 32.47 115.23 32.95 114.09 33.91C112.95 34.84 112.2 36.115 111.84 37.735L109.05 50.965C108.99 51.265 108.84 51.52 108.6 51.73C108.36 51.91 108.09 52 107.79 52H105.585ZM122.767 52C122.467 52 122.227 51.91 122.047 51.73C121.897 51.52 121.852 51.265 121.912 50.965L128.302 21.085C128.362 20.785 128.497 20.545 128.707 20.365C128.947 20.155 129.217 20.05 129.517 20.05H131.677C131.977 20.05 132.202 20.155 132.352 20.365C132.502 20.545 132.547 20.785 132.487 21.085L126.142 50.965C126.082 51.265 125.932 51.52 125.692 51.73C125.482 51.91 125.227 52 124.927 52H122.767ZM133.754 52C133.454 52 133.214 51.91 133.034 51.73C132.884 51.52 132.839 51.265 132.899 50.965L137.444 29.635C137.504 29.335 137.654 29.095 137.894 28.915C138.134 28.705 138.404 28.6 138.704 28.6H140.864C141.164 28.6 141.374 28.705 141.494 28.915C141.644 29.095 141.689 29.335 141.629 29.635L137.129 50.965C137.069 51.265 136.919 51.52 136.679 51.73C136.469 51.91 136.214 52 135.914 52H133.754ZM139.289 24.235C138.989 24.235 138.764 24.145 138.614 23.965C138.464 23.755 138.404 23.5 138.434 23.2L139.019 20.77C139.079 20.47 139.214 20.23 139.424 20.05C139.664 19.84 139.934 19.735 140.234 19.735H143.024C143.354 19.735 143.594 19.84 143.744 20.05C143.924 20.23 143.984 20.47 143.924 20.77L143.384 23.2C143.324 23.5 143.174 23.755 142.934 23.965C142.694 24.145 142.424 24.235 142.124 24.235H139.289Z" fill="#444243"/>
<path d="M34.0256 8.61426C31.362 8.07405 28.5928 8.60962 26.3227 10.104C24.0526 11.5985 22.4659 13.9303 21.9091 16.5905L19.3522 28.9191C19.2912 29.2151 19.2891 29.5202 19.346 29.8169C19.403 30.1137 19.5178 30.3963 19.6839 30.6487C19.8501 30.9011 20.0643 31.1183 20.3144 31.2879C20.5645 31.4575 20.8455 31.5762 21.1415 31.6372C21.4375 31.6982 21.7425 31.7003 22.0393 31.6434C22.3361 31.5864 22.6187 31.4716 22.8711 31.3055C23.1235 31.1393 23.3407 30.9251 23.5103 30.675C23.6799 30.4249 23.7986 30.1439 23.8596 29.8479L26.3974 17.5319C26.7253 16.0722 27.6069 14.7966 28.8566 13.974C30.1062 13.1513 31.6264 12.8458 33.0969 13.1216C33.827 13.2706 34.5206 13.5623 35.1378 13.9799C35.755 14.3976 36.2836 14.933 36.6934 15.5554C37.1031 16.1779 37.386 16.8751 37.5256 17.6072C37.6652 18.3392 37.659 19.0916 37.5071 19.8211L34.9694 32.1371C34.9071 32.4332 34.9041 32.7386 34.9604 33.0358C35.0168 33.3331 35.1315 33.6162 35.2978 33.8689C35.4642 34.1216 35.6789 34.3388 35.9296 34.5081C36.1804 34.6774 36.4621 34.7954 36.7587 34.8552C37.0547 34.9175 37.3602 34.9205 37.6574 34.8641C37.9546 34.8078 38.2378 34.6931 38.4904 34.5267C38.7431 34.3604 38.9604 34.1457 39.1297 33.8949C39.299 33.6442 39.4169 33.3624 39.4768 33.0659L42.0019 20.7308C42.5421 18.0671 42.0066 15.298 40.5121 13.0278C39.0177 10.7577 36.6858 9.17105 34.0256 8.61426Z" fill="#FFBF00"/>
<path d="M22.5556 64.293C25.2193 64.8332 27.9884 64.2976 30.2586 62.8032C32.5287 61.3088 34.1154 58.9769 34.6722 56.3167L37.2291 43.9881C37.2901 43.6922 37.2921 43.3871 37.2352 43.0903C37.1783 42.7935 37.0635 42.5109 36.8973 42.2585C36.7312 42.0061 36.517 41.7889 36.2669 41.6193C36.0168 41.4497 35.7357 41.331 35.4398 41.27C35.1438 41.2091 34.8387 41.207 34.542 41.2639C34.2452 41.3208 33.9625 41.4356 33.7101 41.6018C33.4577 41.7679 33.2405 41.9822 33.0709 42.2322C32.9013 42.4823 32.7827 42.7634 32.7217 43.0593L30.1839 55.3753C29.856 56.8351 28.9744 58.1106 27.7247 58.9333C26.475 59.7559 24.9549 60.0615 23.4844 59.7856C22.7542 59.6366 22.0607 59.345 21.4435 58.9273C20.8263 58.5097 20.2976 57.9742 19.8879 57.3518C19.4781 56.7293 19.1953 56.0321 19.0557 55.3001C18.916 54.5681 18.9223 53.8157 19.0741 53.0861L21.6119 40.7701C21.6742 40.4741 21.6772 40.1686 21.6208 39.8714C21.5645 39.5742 21.4498 39.291 21.2835 39.0384C21.1171 38.7857 20.9024 38.5684 20.6516 38.3991C20.4009 38.2298 20.1191 38.1119 19.8226 38.052C19.5265 37.9898 19.2211 37.9867 18.9239 38.0431C18.6266 38.0995 18.3435 38.2142 18.0908 38.3805C17.8381 38.5468 17.6209 38.7616 17.4516 39.0123C17.2823 39.263 17.1644 39.5448 17.1045 39.8414L14.5793 52.1765C14.0391 54.8401 14.5747 57.6093 16.0691 59.8794C17.5636 62.1495 19.8954 63.7362 22.5556 64.293Z" fill="#008A9C"/>
<path d="M26.3774 46.1127C26.6731 46.1724 26.9776 46.1731 27.2735 46.1148C27.5694 46.0566 27.8509 45.9404 28.1019 45.7732C28.3548 45.6088 28.5727 45.3961 28.7432 45.1473C28.9137 44.8985 29.0334 44.6185 29.0955 44.3234L32.3135 28.7062C32.4367 28.1085 32.3173 27.4864 31.9818 26.9766C31.6462 26.4669 31.1219 26.1113 30.5242 25.9881C29.9265 25.865 29.3043 25.9843 28.7946 26.3199C28.2848 26.6554 27.9293 27.1797 27.8061 27.7775L24.5881 43.3946C24.5258 43.6907 24.5228 43.9961 24.5792 44.2933C24.6356 44.5906 24.7502 44.8737 24.9166 45.1264C25.0829 45.3791 25.2976 45.5963 25.5484 45.7656C25.7991 45.9349 26.0809 46.0529 26.3774 46.1127Z" fill="#444243"/>
<line x1="15.9271" y1="33.7506" x2="7.10584" y2="31.9657" stroke="#444243" stroke-linecap="round"/>
<line x1="16.5766" y1="30.6038" x2="12.8283" y2="27.2947" stroke="#444243" stroke-linecap="round"/>
<line x1="10.5236" y1="38.5746" x2="15.2691" y2="36.9999" stroke="#444243" stroke-linecap="round"/>
<line x1="0.5" y1="-0.5" x2="9.11545" y2="-0.5" transform="matrix(0.978699 0.205303 0.205303 -0.978699 40.3947 38.302)" stroke="#444243" stroke-linecap="round"/>
<line x1="0.5" y1="-0.5" x2="5.26927" y2="-0.5" transform="matrix(0.950229 -0.311552 -0.311552 -0.950229 40.7823 35.5379)" stroke="#444243" stroke-linecap="round"/>
<line x1="0.5" y1="-0.5" x2="5.26927" y2="-0.5" transform="matrix(-0.747298 -0.664489 -0.664489 0.747298 43.7453 45.8646)" stroke="#444243" stroke-linecap="round"/>
</svg>
